<svg width="24" height="23" viewBox="0 0 24 23" fill="none" xmlns="http://www.w3.org/2000/svg">
<mask id="mask0_1_172" style="mask-type:luminance" maskUnits="userSpaceOnUse" x="0" y="0" width="24" height="23">
<path d="M23.0246 0.225098H0.474609V22.7751H23.0246V0.225098Z" fill="white"/>
</mask>
<g mask="url(#mask0_1_172)">
<path d="M15.9777 0.225098H7.5215C3.6302 0.225098 0.474609 3.38072 0.474609 7.27202V15.7282C0.474609 19.6195 3.6302 22.7751 7.5215 22.7751H15.9777C19.869 22.7751 23.0246 19.6195 23.0246 15.7282V7.27202C23.0246 3.38072 19.869 0.225098 15.9777 0.225098ZM20.9105 15.7282C20.9105 18.4483 18.6978 20.661 15.9777 20.661H7.5215C4.8014 20.661 2.5887 18.4483 2.5887 15.7282V7.27202C2.5887 4.55192 4.8014 2.33912 7.5215 2.33912H15.9777C18.6978 2.33912 20.9105 4.55192 20.9105 7.27202V15.7282Z" fill="#004296"/>
<path d="M11.7498 5.86255C8.6365 5.86255 6.1123 8.38675 6.1123 11.5C6.1123 14.6133 8.6365 17.1375 11.7498 17.1375C14.8631 17.1375 17.3873 14.6133 17.3873 11.5C17.3873 8.38675 14.8631 5.86255 11.7498 5.86255ZM11.7498 15.0234C9.8077 15.0234 8.2264 13.4421 8.2264 11.5C8.2264 9.55655 9.8077 7.97665 11.7498 7.97665C13.6919 7.97665 15.2732 9.55655 15.2732 11.5C15.2732 13.4421 13.6919 15.0234 11.7498 15.0234Z" fill="#004296"/>
<path d="M17.8098 6.19112C18.2247 6.19112 18.561 5.85472 18.561 5.43992C18.561 5.02502 18.2247 4.68872 17.8098 4.68872C17.3949 4.68872 17.0586 5.02502 17.0586 5.43992C17.0586 5.85472 17.3949 6.19112 17.8098 6.19112Z" fill="#004296"/>
</g>
</svg>
