<svg width="340" height="111" viewBox="0 0 340 111" fill="none" xmlns="http://www.w3.org/2000/svg">
<path d="M97.7463 78.1918L108.505 33.8357L116.661 44.1489L108.354 78.1981H97.7463V78.1918ZM154.416 78.1918H165.023L152.34 26.2686H138.767L131.35 57.8664L124.084 26.2686H113.257L126.09 78.1918H136.698H136.773L145.601 35.3905L154.416 78.1918ZM165.374 52.4621C164.428 54.8383 163.958 57.252 163.958 59.7033C163.958 62.1546 164.421 64.5558 165.349 66.9131C166.277 69.2767 167.682 71.3958 169.569 73.2828C171.424 75.1386 173.531 76.5241 175.888 77.452C178.246 78.3799 180.653 78.8438 183.098 78.8438C185.549 78.8438 187.951 78.3611 190.308 77.4018C192.665 76.4426 194.79 75.0132 196.678 73.1261C198.847 70.9569 200.408 68.4115 201.361 65.4837C202.314 62.5559 202.539 59.5842 202.032 56.5623V56.3492L193.267 59.7535L193.11 59.8036V59.9102C193.317 61.5214 193.16 62.8443 192.64 63.8975C192.113 64.9445 191.38 65.9414 190.44 66.888C189.393 67.935 188.214 68.6435 186.904 69.0134C185.593 69.3833 184.296 69.5149 183.004 69.4146C181.713 69.3143 180.484 68.9946 179.318 68.4554C178.151 67.9162 177.167 67.2454 176.365 66.4429C175.318 65.3959 174.528 64.2549 173.989 63.0198C173.449 61.7848 173.161 60.5371 173.13 59.277C173.098 58.0231 173.311 56.7818 173.763 55.5592C174.221 54.3367 174.916 53.2521 175.863 52.3117C177.399 50.7757 179.211 49.9105 181.292 49.7161C183.374 49.5218 185.393 49.9168 187.349 50.8948L177.38 60.8631L186.089 62.8568L199.411 49.5343L199.361 49.3776C198.627 48.224 197.75 47.1394 196.74 46.1238C194.853 44.2367 192.728 42.8323 190.371 41.9044C188.013 40.9766 185.606 40.5127 183.161 40.5127C180.709 40.5127 178.308 40.9766 175.951 41.9044C173.594 42.8323 171.481 44.2241 169.631 46.0736C167.732 47.9482 166.315 50.086 165.374 52.4621ZM236.169 41.102V46.1739C233.397 42.3997 229.492 40.5127 224.451 40.5127C221.78 40.5127 219.26 41.0205 216.884 42.0361C214.508 43.0518 212.458 44.4248 210.727 46.1551C208.997 47.8855 207.624 49.9168 206.608 52.2364C205.593 54.5624 205.085 57.0576 205.085 59.7284C205.085 62.349 205.593 64.8379 206.608 67.1827C207.624 69.5337 208.991 71.5713 210.727 73.3017C212.458 75.032 214.508 76.405 216.884 77.4207C219.26 78.4363 221.78 78.9441 224.451 78.9441C226.344 78.9441 228.075 78.6557 229.642 78.104V69.3018C228.507 69.8472 227.166 70.1168 225.636 70.1168C224.2 70.1168 222.852 69.8409 221.592 69.2955C220.332 68.7501 219.229 67.9977 218.288 67.0511C217.348 66.1044 216.608 65.0072 216.063 63.7659C215.517 62.5183 215.248 61.1766 215.248 59.7284C215.248 58.2864 215.517 56.9259 216.063 55.6595C216.608 54.3868 217.348 53.296 218.288 52.3744C219.229 51.4528 220.326 50.7192 221.592 50.1675C222.852 49.6221 224.2 49.3463 225.636 49.3463C227.072 49.3463 228.42 49.6221 229.68 50.1613C230.94 50.7067 232.056 51.4402 233.015 52.3556C233.981 53.2709 234.745 54.3618 235.316 55.6282C235.886 56.8946 236.169 58.2425 236.169 59.6782V73.2828C236.169 75.0696 235.886 76.6746 235.316 78.1166C234.745 79.5522 233.981 80.7936 233.015 81.8343C232.05 82.875 230.952 83.665 229.717 84.2167C228.482 84.7621 227.222 85.0317 225.937 85.0317C225.097 85.0317 224.219 84.9189 223.304 84.6994C222.388 84.48 221.498 84.154 220.633 83.7339C219.768 83.3139 218.953 82.7685 218.188 82.1039C217.423 81.4393 216.79 80.6557 216.295 79.7654L208.138 83.3264L208.063 83.4017L208.138 83.5521C209.969 86.668 212.451 89.1256 215.592 90.9312C218.733 92.7368 222.131 93.6396 225.793 93.6396C228.514 93.6396 231.084 93.1318 233.51 92.1161C235.93 91.1005 238.049 89.715 239.855 87.9595C241.661 86.2041 243.109 84.1289 244.193 81.7277C245.278 79.3266 245.899 76.7498 246.049 73.9787V41.1208H236.169V41.102ZM279.659 41.102V46.0987C278.274 44.2868 276.619 42.9013 274.688 41.9421C272.757 40.9829 270.506 40.5064 267.936 40.5064C265.315 40.5064 262.845 41.0142 260.519 42.0298C258.193 43.0455 256.168 44.4185 254.438 46.1488C252.707 47.8792 251.334 49.9105 250.319 52.2302C249.303 54.5561 248.795 57.0513 248.795 59.7221C248.795 62.3427 249.303 64.8191 250.319 67.1388C251.334 69.4648 252.701 71.4898 254.438 73.2201C256.168 74.9505 258.193 76.311 260.519 77.3015C262.845 78.2921 265.315 78.7874 267.936 78.7874C269.829 78.7874 271.553 78.5115 273.127 77.9849V69.1764C272.055 69.6967 270.769 69.96 269.271 69.96C267.835 69.96 266.5 69.6905 265.265 69.145C264.03 68.5996 262.926 67.8535 261.967 66.9131C261.002 65.9664 260.249 64.8756 259.704 63.6405C259.158 62.3992 258.889 61.0826 258.889 59.697C258.889 58.2551 259.158 56.9071 259.704 55.6407C260.249 54.3743 261.002 53.2834 261.967 52.3681C262.933 51.4528 264.03 50.7192 265.265 50.1738C266.5 49.6284 267.835 49.3525 269.271 49.3525C270.657 49.3525 271.979 49.6158 273.24 50.1362C274.5 50.6565 275.616 51.3901 276.575 52.3305C277.534 53.2709 278.293 54.3618 278.838 55.6031C279.384 56.8444 279.653 58.1798 279.653 59.6218V78.2106H289.371V41.1208H279.659V41.102Z" fill="white"/>
<path d="M254.269 97.296C253.271 97.296 252.409 97.0756 251.685 96.6348C250.965 96.1895 250.41 95.5687 250.019 94.7725C249.632 93.9719 249.438 93.0408 249.438 91.9792C249.438 90.9177 249.632 89.9821 250.019 89.1724C250.41 88.3583 250.954 87.724 251.651 87.2697C252.353 86.8109 253.172 86.5815 254.107 86.5815C254.647 86.5815 255.18 86.6715 255.706 86.8514C256.233 87.0313 256.712 87.3237 257.144 87.7285C257.575 88.1288 257.919 88.6596 258.176 89.3208C258.432 89.9821 258.56 90.7962 258.56 91.7633V92.438H250.572V91.0616H256.941C256.941 90.4769 256.824 89.9551 256.59 89.4963C256.361 89.0375 256.032 88.6754 255.605 88.41C255.182 88.1446 254.683 88.0119 254.107 88.0119C253.473 88.0119 252.924 88.1693 252.461 88.4842C252.002 88.7946 251.649 89.1994 251.402 89.6987C251.154 90.198 251.031 90.7333 251.031 91.3045V92.2221C251.031 93.0048 251.166 93.6683 251.435 94.2125C251.71 94.7523 252.09 95.1639 252.576 95.4473C253.061 95.7261 253.626 95.8656 254.269 95.8656C254.688 95.8656 255.065 95.8071 255.403 95.6902C255.745 95.5687 256.039 95.3888 256.287 95.1504C256.534 94.9075 256.725 94.6061 256.86 94.2463L258.398 94.6781C258.237 95.1999 257.964 95.6587 257.582 96.0545C257.2 96.4458 256.727 96.7517 256.165 96.9721C255.603 97.188 254.971 97.296 254.269 97.296ZM262.575 90.8457V97.0801H260.983V86.7164H262.521V88.3358H262.656C262.899 87.8095 263.268 87.3867 263.762 87.0673C264.257 86.7434 264.896 86.5815 265.679 86.5815C266.38 86.5815 266.994 86.7254 267.521 87.0133C268.047 87.2967 268.456 87.7285 268.749 88.3088C269.041 88.8845 269.187 89.6132 269.187 90.4949V97.0801H267.595V90.6028C267.595 89.7886 267.383 89.1544 266.961 88.7001C266.538 88.2413 265.958 88.0119 265.22 88.0119C264.712 88.0119 264.257 88.1221 263.857 88.3425C263.461 88.5629 263.148 88.8845 262.919 89.3074C262.69 89.7302 262.575 90.243 262.575 90.8457ZM276.442 97.296C275.444 97.296 274.582 97.0756 273.858 96.6348C273.138 96.1895 272.583 95.5687 272.191 94.7725C271.805 93.9719 271.611 93.0408 271.611 91.9792C271.611 90.9177 271.805 89.9821 272.191 89.1724C272.583 88.3583 273.127 87.724 273.824 87.2697C274.526 86.8109 275.345 86.5815 276.28 86.5815C276.82 86.5815 277.353 86.6715 277.879 86.8514C278.406 87.0313 278.885 87.3237 279.316 87.7285C279.748 88.1288 280.092 88.6596 280.349 89.3208C280.605 89.9821 280.733 90.7962 280.733 91.7633V92.438H272.745V91.0616H279.114C279.114 90.4769 278.997 89.9551 278.763 89.4963C278.534 89.0375 278.205 88.6754 277.778 88.41C277.355 88.1446 276.856 88.0119 276.28 88.0119C275.646 88.0119 275.097 88.1693 274.634 88.4842C274.175 88.7946 273.822 89.1994 273.575 89.6987C273.327 90.198 273.203 90.7333 273.203 91.3045V92.2221C273.203 93.0048 273.338 93.6683 273.608 94.2125C273.883 94.7523 274.263 95.1639 274.749 95.4473C275.234 95.7261 275.799 95.8656 276.442 95.8656C276.86 95.8656 277.238 95.8071 277.576 95.6902C277.917 95.5687 278.212 95.3888 278.459 95.1504C278.707 94.9075 278.898 94.6061 279.033 94.2463L280.571 94.6781C280.409 95.1999 280.137 95.6587 279.755 96.0545C279.373 96.4458 278.9 96.7517 278.338 96.9721C277.776 97.188 277.144 97.296 276.442 97.296ZM283.156 97.0801V86.7164H284.694V88.2818H284.802C284.991 87.769 285.333 87.3529 285.827 87.0336C286.322 86.7142 286.88 86.5545 287.501 86.5545C287.618 86.5545 287.764 86.5568 287.939 86.5613C288.115 86.5658 288.247 86.5725 288.337 86.5815V88.2008C288.283 88.1873 288.16 88.1671 287.966 88.1401C287.777 88.1086 287.577 88.0929 287.366 88.0929C286.862 88.0929 286.412 88.1986 286.016 88.41C285.625 88.6169 285.315 88.9048 285.085 89.2736C284.86 89.638 284.748 90.054 284.748 90.5218V97.0801H283.156ZM294.093 101.182C293.323 101.182 292.662 101.083 292.109 100.885C291.556 100.692 291.095 100.436 290.726 100.116C290.361 99.8014 290.071 99.4641 289.855 99.1042L291.124 98.2136C291.268 98.4025 291.45 98.6184 291.67 98.8613C291.891 99.1087 292.192 99.3224 292.575 99.5023C292.961 99.6867 293.467 99.7789 294.093 99.7789C294.929 99.7789 295.62 99.5765 296.164 99.1717C296.708 98.7669 296.98 98.1326 296.98 97.269V95.1639H296.845C296.729 95.3528 296.562 95.5867 296.346 95.8656C296.135 96.14 295.829 96.3851 295.429 96.601C295.033 96.8124 294.497 96.9181 293.823 96.9181C292.986 96.9181 292.235 96.7202 291.569 96.3244C290.908 95.9286 290.384 95.3528 289.997 94.5971C289.615 93.8414 289.424 92.9238 289.424 91.8443C289.424 90.7827 289.61 89.8584 289.984 89.0712C290.357 88.2795 290.877 87.6678 291.542 87.236C292.208 86.7997 292.977 86.5815 293.85 86.5815C294.524 86.5815 295.06 86.694 295.456 86.9189C295.856 87.1393 296.162 87.3912 296.373 87.6745C296.589 87.9534 296.756 88.1828 296.872 88.3627H297.034V86.7164H298.573V97.377C298.573 98.2676 298.37 98.9918 297.966 99.5495C297.565 100.112 297.025 100.523 296.346 100.784C295.671 101.05 294.92 101.182 294.093 101.182ZM294.039 95.4877C294.677 95.4877 295.217 95.3416 295.658 95.0492C296.099 94.7568 296.434 94.3362 296.663 93.7875C296.893 93.2387 297.007 92.582 297.007 91.8173C297.007 91.0706 296.895 90.4116 296.67 89.8404C296.445 89.2691 296.112 88.8216 295.671 88.4977C295.231 88.1738 294.686 88.0119 294.039 88.0119C293.364 88.0119 292.802 88.1828 292.352 88.5247C291.907 88.8665 291.571 89.3253 291.347 89.9011C291.126 90.4769 291.016 91.1156 291.016 91.8173C291.016 92.537 291.128 93.1735 291.353 93.7267C291.583 94.2755 291.92 94.7073 292.365 95.0222C292.815 95.3326 293.373 95.4877 294.039 95.4877ZM301.488 97.0801V86.7164H303.08V97.0801H301.488ZM302.297 84.9892C301.987 84.9892 301.719 84.8835 301.494 84.6721C301.274 84.4606 301.164 84.2065 301.164 83.9096C301.164 83.6127 301.274 83.3586 301.494 83.1472C301.719 82.9358 301.987 82.8301 302.297 82.8301C302.608 82.8301 302.873 82.9358 303.093 83.1472C303.318 83.3586 303.431 83.6127 303.431 83.9096C303.431 84.2065 303.318 84.4606 303.093 84.6721C302.873 84.8835 302.608 84.9892 302.297 84.9892ZM309.046 97.323C308.389 97.323 307.793 97.1993 307.258 96.9519C306.723 96.7 306.298 96.3379 305.983 95.8656C305.668 95.3888 305.511 94.813 305.511 94.1383C305.511 93.5446 305.627 93.0633 305.861 92.6944C306.095 92.3211 306.408 92.0287 306.799 91.8173C307.191 91.6059 307.622 91.4484 308.095 91.345C308.571 91.237 309.051 91.1516 309.532 91.0886C310.162 91.0076 310.672 90.9469 311.063 90.9064C311.459 90.8614 311.747 90.7872 311.927 90.6838C312.112 90.5803 312.204 90.4004 312.204 90.144V90.09C312.204 89.4243 312.022 88.907 311.657 88.5382C311.297 88.1693 310.751 87.9849 310.018 87.9849C309.257 87.9849 308.661 88.1513 308.23 88.4842C307.798 88.8171 307.494 89.1724 307.319 89.5502L305.807 89.0105C306.077 88.3807 306.437 87.8904 306.887 87.5396C307.341 87.1842 307.836 86.9368 308.371 86.7974C308.911 86.6535 309.442 86.5815 309.964 86.5815C310.297 86.5815 310.679 86.622 311.111 86.7029C311.547 86.7794 311.968 86.9391 312.372 87.182C312.782 87.4249 313.121 87.7915 313.391 88.2818C313.661 88.7721 313.796 89.4288 313.796 90.252V97.0801H312.204V95.6767H312.123C312.015 95.9016 311.835 96.1422 311.583 96.3986C311.331 96.655 310.996 96.8732 310.578 97.0531C310.159 97.233 309.649 97.323 309.046 97.323ZM309.289 95.8926C309.919 95.8926 310.449 95.7689 310.881 95.5215C311.318 95.2741 311.646 94.9547 311.866 94.5634C312.091 94.1721 312.204 93.7605 312.204 93.3287V91.8713C312.136 91.9522 311.988 92.0265 311.758 92.0939C311.533 92.1569 311.273 92.2131 310.976 92.2626C310.683 92.3076 310.398 92.3481 310.119 92.3841C309.844 92.4155 309.622 92.4425 309.451 92.465C309.037 92.519 308.65 92.6067 308.29 92.7282C307.935 92.8451 307.647 93.0228 307.427 93.2612C307.211 93.4951 307.103 93.8145 307.103 94.2193C307.103 94.7725 307.308 95.1909 307.717 95.4743C308.131 95.7531 308.655 95.8926 309.289 95.8926Z" fill="#8FE68E"/>
<path d="M44.7824 0.00626596L19.316 105.019L0 80.6058L19.6671 0H44.7824V0.00626596ZM50.8825 0.0250734L31.2154 80.6308L50.5314 105.044L75.9977 0.0313489H50.8825V0.0250734ZM82.0916 0.00626596L62.4245 80.612L81.7405 105.025L107.207 0.0125319H82.0916V0.00626596Z" fill="url(#paint0_linear_112_1121)"/>
<defs>
<linearGradient id="paint0_linear_112_1121" x1="7.83168" y1="20.5143" x2="99.8582" y2="73.6458" gradientUnits="userSpaceOnUse">
<stop stop-color="#8FE68E"/>
<stop offset="1" stop-color="#166938"/>
</linearGradient>
</defs>
</svg>
