<svg width="24" height="23" viewBox="0 0 24 23" fill="none" xmlns="http://www.w3.org/2000/svg">
<path fill-rule="evenodd" clip-rule="evenodd" d="M4.15309 10.4286C4.15309 8.7615 4.81534 7.1627 5.99414 5.9839C7.17294 4.8051 8.77173 4.14286 10.4388 4.14286C12.1059 4.14286 13.7047 4.8051 14.8835 5.9839C16.0623 7.1627 16.7245 8.7615 16.7245 10.4286C16.7245 12.0956 16.0623 13.6944 14.8835 14.8732C13.7047 16.052 12.1059 16.7143 10.4388 16.7143C8.77173 16.7143 7.17294 16.052 5.99414 14.8732C4.81534 13.6944 4.15309 12.0956 4.15309 10.4286ZM10.4388 1C8.95491 0.999811 7.49193 1.34987 6.16883 2.0217C4.84573 2.69353 3.69989 3.66816 2.82449 4.86634C1.94909 6.06451 1.36886 7.45238 1.13098 8.91709C0.893094 10.3818 1.00428 11.882 1.4555 13.2956C1.90672 14.7092 2.68523 15.9964 3.7277 17.0524C4.77018 18.1084 6.04719 18.9035 7.45487 19.3729C8.86256 19.8423 10.3612 19.9729 11.8288 19.7539C13.2965 19.535 14.6917 18.9727 15.9011 18.1129L20.3278 22.5396C20.6242 22.8258 21.0211 22.9842 21.4332 22.9806C21.8452 22.977 22.2393 22.8118 22.5307 22.5204C22.822 22.2291 22.9873 21.8349 22.9909 21.4229C22.9944 21.0109 22.8361 20.6139 22.5498 20.3176L18.1247 15.8924C19.1277 14.4819 19.7231 12.8224 19.8456 11.0959C19.9681 9.36943 19.613 7.64254 18.8192 6.10447C18.0254 4.5664 16.8236 3.27651 15.3454 2.37614C13.8672 1.47577 12.1696 0.999664 10.4388 1Z" fill="#004296"/>
</svg>
