<svg width="27" height="27" viewBox="0 0 27 27" fill="none" xmlns="http://www.w3.org/2000/svg">
<path d="M22.9 4.04658C21.6776 2.81182 20.2216 1.83281 18.6169 1.16665C17.0121 0.500496 15.2908 0.16053 13.5533 0.166583C6.27333 0.166583 0.34 6.09992 0.34 13.3799C0.34 15.7132 0.953334 17.9799 2.1 19.9799L0.233334 26.8333L7.23333 24.9933C9.16667 26.0466 11.34 26.6066 13.5533 26.6066C20.8333 26.6066 26.7667 20.6733 26.7667 13.3932C26.7667 9.85992 25.3933 6.53992 22.9 4.04658ZM13.5533 24.3666C11.58 24.3666 9.64667 23.8333 7.95333 22.8333L7.55333 22.5932L3.39333 23.6866L4.5 19.6333L4.23333 19.2199C3.137 17.4692 2.55485 15.4456 2.55333 13.3799C2.55333 7.32658 7.48667 2.39325 13.54 2.39325C16.4733 2.39325 19.2333 3.53992 21.3 5.61992C22.3233 6.63853 23.1343 7.85013 23.6859 9.18448C24.2375 10.5188 24.5187 11.9494 24.5133 13.3932C24.54 19.4466 19.6067 24.3666 13.5533 24.3666ZM19.58 16.1532C19.2467 15.9932 17.62 15.1933 17.3267 15.0733C17.02 14.9666 16.8067 14.9133 16.58 15.2333C16.3533 15.5666 15.7267 16.3133 15.54 16.5266C15.3533 16.7533 15.1533 16.7799 14.82 16.6066C14.4867 16.4466 13.42 16.0866 12.1667 14.9666C11.18 14.0866 10.5267 13.0066 10.3267 12.6732C10.14 12.3399 10.3 12.1666 10.4733 11.9932C10.62 11.8466 10.8067 11.6066 10.9667 11.4199C11.1267 11.2332 11.1933 11.0866 11.3 10.8732C11.4067 10.6466 11.3533 10.4599 11.2733 10.2999C11.1933 10.1399 10.5267 8.51325 10.26 7.84658C9.99333 7.20658 9.71333 7.28658 9.51333 7.27325H8.87333C8.64667 7.27325 8.3 7.35325 7.99333 7.68658C7.7 8.01992 6.84667 8.81992 6.84667 10.4466C6.84667 12.0733 8.03333 13.6466 8.19333 13.8599C8.35333 14.0866 10.5267 17.4199 13.8333 18.8466C14.62 19.1933 15.2333 19.3933 15.7133 19.5399C16.5 19.7933 17.22 19.7532 17.7933 19.6732C18.4333 19.5799 19.7533 18.8732 20.02 18.0999C20.3 17.3266 20.3 16.6733 20.2067 16.5266C20.1133 16.3799 19.9133 16.3132 19.58 16.1532Z" fill="#004296"/>
</svg>
